PathFileType	4	(X/Y/Z)	D:\datacapture\jf2lin\2017-09-14 IITTimeSync\timesync1.trc
DataRate	CameraRate	NumFrames	NumMarkers	Units	OrigDataRate	OrigDataStartFrame	OrigNumFrames
100.00	100.00	      93	3	mm	100.00	2836	      3241
Frame#	Time	M1			M2			M3			
		X1	Y1	Z1	X2	Y2	Z2	X3	Y3	Z3	

2836	28.350	353.99905	1252.32153	818.30847	400.71622	1238.62976	800.09399	535.45764	1199.99658	749.08313	
2837	28.360	354.70413	1252.60608	821.55804	401.29520	1238.47046	803.01733	535.67554	1198.80396	751.37982	
2838	28.370	355.82004	1252.54248	824.56000	401.73224	1238.42871	805.83191	535.37286	1197.75061	753.50275	
2839	28.380	356.27109	1252.68213	827.71704	402.89905	1238.08813	808.18738	535.43762	1197.14954	755.95251	
2840	28.390	356.95282	1252.37769	830.57599	402.94016	1237.73499	811.09412	535.43665	1196.80493	757.52069	
2841	28.400	357.15970	1251.76831	832.98065	403.33127	1237.17249	813.43182	535.83911	1197.14417	759.58673	
2842	28.410	357.30078	1250.74573	835.25946	403.38873	1236.87085	815.56543	536.09967	1197.96179	761.24261	
2843	28.420	356.94354	1249.63086	836.92780	403.53778	1236.33130	817.27576	536.57959	1198.79248	763.06091	
2844	28.430	356.57233	1249.13635	838.48718	403.56839	1235.97620	818.73163	537.15118	1200.04712	765.27802	
2845	28.440	356.91464	1248.10022	839.70966	403.62955	1235.81152	820.21924	538.18457	1201.39624	767.13446	
2846	28.450	356.72208	1247.35742	839.98859	403.47241	1235.79272	821.10034	538.48077	1202.54846	769.00793	
2847	28.460	356.52847	1247.18298	840.86578	403.70737	1235.69910	822.15289	539.36115	1203.76086	770.67352	
2848	28.470	356.42178	1246.97607	841.54987	403.82922	1235.88281	823.02032	539.62463	1204.83215	772.31018	
2849	28.480	356.40689	1247.16882	842.11298	403.71027	1236.54822	824.02069	540.26801	1206.15735	773.29449	
2850	28.490	356.71161	1247.58923	842.49323	403.94562	1237.14941	824.63110	540.67499	1206.83264	774.57520	
2851	28.500	356.35498	1248.60339	843.23425	404.05157	1237.93799	825.12494	540.83417	1207.43970	775.77289	
2852	28.510	356.43439	1249.42737	843.53766	404.31567	1238.66321	825.53979	541.08673	1208.77454	776.21716	
2853	28.520	356.28238	1250.06665	843.75299	404.20740	1239.56689	825.82648	541.37695	1210.33118	776.70093	
2854	28.530	356.51004	1250.78613	843.60980	404.47269	1240.42627	825.93781	541.68390	1212.07910	777.26825	
2855	28.540	356.69675	1251.77197	843.34589	404.41046	1241.71106	825.80072	542.06805	1213.08289	777.65808	
2856	28.550	356.57990	1252.96997	842.73718	404.53577	1243.17773	825.57648	542.40021	1214.30725	777.99146	
2857	28.560	356.78119	1254.31580	842.01959	404.81131	1244.53149	825.04736	542.52844	1215.97327	778.07916	
2858	28.570	356.65793	1256.11084	841.44635	404.89719	1245.69177	824.67450	542.97156	1216.69824	778.44006	
2859	28.580	356.59174	1257.24512	840.81995	404.91428	1247.17737	823.83008	542.83142	1218.26379	777.78149	
2860	28.590	356.77744	1258.88110	840.59882	404.91971	1248.64258	823.70801	542.77643	1219.47156	777.42261	
2861	28.600	356.34448	1260.71704	840.05646	404.71451	1249.94775	822.94318	542.77081	1220.25549	777.14111	
2862	28.610	356.42801	1262.44409	839.75201	404.88184	1251.37976	822.58276	542.64795	1221.16284	776.27344	
2863	28.620	357.18167	1264.13806	838.53241	405.03635	1253.10498	821.96149	542.89081	1221.69324	775.56873	
2864	28.630	357.54330	1266.31226	838.39124	405.35699	1254.63757	821.49274	542.45532	1222.36511	774.67261	
2865	28.640	357.76532	1268.77148	837.83972	405.65628	1256.60645	820.80487	542.69489	1222.83887	774.07300	
2866	28.650	358.10031	1271.32703	837.30200	405.93887	1258.86133	820.09204	542.26172	1223.83765	773.65448	
2867	28.660	358.55872	1273.47278	836.84277	406.43860	1260.57446	819.64594	542.46362	1224.77075	772.98511	
2868	28.670	358.96280	1275.58582	836.07782	406.67636	1262.51697	819.52332	542.57166	1225.91199	772.39282	
2869	28.680	359.13892	1277.88574	835.90778	406.74561	1264.45557	819.12683	542.79883	1226.83313	771.70282	
2870	28.690	359.42120	1279.74438	835.61908	406.94763	1266.75671	818.77380	542.95264	1228.77563	771.38470	
2871	28.700	359.74731	1281.59045	835.58130	407.02319	1268.45264	818.40601	542.81305	1230.77283	770.78577	
2872	28.710	359.82568	1283.43640	835.30695	407.23682	1270.09399	818.18781	543.29889	1232.63977	770.50488	
2873	28.720	359.78018	1285.28198	834.77448	407.34216	1272.14502	817.93176	543.62054	1234.74609	770.51733	
2874	28.730	360.24844	1286.79773	834.32477	407.74753	1273.53186	817.35278	543.93164	1237.05969	770.33551	
2875	28.740	360.59296	1288.43188	834.12329	408.16537	1275.57446	816.81573	544.24097	1239.06104	770.00153	
2876	28.750	360.71274	1290.02271	833.76123	408.23224	1277.37268	816.69031	544.66547	1240.57434	769.77625	
2877	28.760	361.25162	1292.14771	833.53760	408.49619	1279.40576	816.46606	544.96790	1242.63599	769.76013	
2878	28.770	361.16592	1294.27087	833.28851	408.96185	1281.33386	816.38348	545.52985	1244.37390	769.24951	
2879	28.780	361.95868	1296.15942	833.19659	409.18350	1283.16919	816.22357	545.67023	1246.40369	768.93988	
2880	28.790	362.61429	1297.84131	832.82074	409.93610	1284.60901	815.85150	546.03699	1248.23865	768.80359	
2881	28.800	363.18845	1299.69482	832.76849	410.04465	1286.51025	815.83710	546.41351	1250.29407	768.45251	
2882	28.810	363.34564	1301.74854	832.39575	410.18048	1288.87549	815.68036	546.90198	1252.17957	768.34741	
2883	28.820	363.48346	1303.19519	832.00568	410.53049	1290.98706	815.58423	547.14380	1254.75842	768.19153	
2884	28.830	363.83749	1304.93945	831.62231	411.55759	1292.53809	814.82129	547.99316	1257.42480	768.69177	
2885	28.840	363.62759	1306.76062	831.05432	411.95221	1294.39575	814.61493	548.84479	1260.01526	768.65619	
2886	28.850	363.83261	1308.69507	830.63617	412.10342	1296.61035	814.39551	549.42432	1263.04871	769.28741	
2887	28.860	363.92252	1310.74084	830.04919	412.23615	1299.08655	814.03815	550.34882	1265.91040	769.29138	
2888	28.870	364.69077	1312.64209	829.73914	412.83197	1301.05737	813.97809	551.29089	1267.91565	769.51672	
2889	28.880	365.35080	1314.44678	829.03400	413.44339	1303.25439	813.78064	551.68298	1270.13220	769.61115	
2890	28.890	365.76318	1316.76721	828.91992	414.05109	1305.16675	813.58856	551.97198	1272.66663	769.95953	
2891	28.900	365.97610	1319.22644	828.71393	414.31467	1307.68372	813.55316	552.92291	1274.55029	770.53442	
2892	28.910	366.28784	1321.67078	828.48865	414.87720	1309.72375	813.44733	553.14172	1276.03613	770.73071	
2893	28.920	366.56335	1324.05896	828.66943	415.07748	1311.67468	813.55713	553.84418	1277.50134	770.68719	
2894	28.930	366.75089	1326.06812	828.61224	415.36078	1313.77893	813.56226	553.73541	1279.09851	771.32422	
2895	28.940	367.07257	1327.99854	828.45044	415.57831	1315.93103	813.38782	553.65405	1281.21216	771.52014	
2896	28.950	367.50061	1330.20972	828.41901	415.47092	1317.86426	813.68494	553.96454	1282.29663	771.81097	
2897	28.960	367.25174	1332.60706	828.75208	415.51306	1319.83813	813.83362	553.63721	1283.60962	772.47638	
2898	28.970	367.11731	1334.85242	829.01337	415.27963	1321.77124	814.10095	553.34332	1284.95740	773.37793	
2899	28.980	366.92099	1336.98938	829.21466	414.83453	1323.76331	814.71771	553.05200	1286.07983	773.97803	
2900	28.990	366.67996	1338.98169	830.48718	414.78851	1325.51648	815.07928	552.80072	1287.02966	774.47925	
2901	29.000	366.59894	1340.55664	830.51642	414.49777	1326.94836	816.00098	551.96851	1288.35938	775.02246	
2902	29.010	365.40552	1342.55042	831.48846	414.11139	1328.60938	816.70526	551.52478	1289.90625	775.68555	
2903	29.020	365.24435	1344.09583	832.68341	413.44870	1330.25525	817.48810	550.84705	1290.97339	776.58990	
2904	29.030	364.64084	1345.73767	833.43628	412.70819	1331.58435	818.21411	550.39154	1292.43506	777.37793	
2905	29.040	364.09940	1346.95630	833.76215	412.21066	1333.06531	819.14764	549.21936	1293.32922	778.15808	
2906	29.050	363.02286	1348.53015	835.01221	411.09586	1334.61755	819.94830	548.10999	1294.70142	779.40149	
2907	29.060	362.66290	1349.72498	836.06799	410.41080	1335.98596	820.62671	547.21545	1295.66211	779.87604	
2908	29.070	361.86456	1351.23352	836.75165	410.47955	1336.68420	821.91211	546.94391	1296.67249	780.31232	
2909	29.080	361.05966	1352.68201	837.57825	409.18198	1338.01819	823.14819	545.80865	1297.58337	781.53674	
2910	29.090	360.48779	1353.60474	838.26257	408.82993	1339.21338	823.49536	545.53217	1298.40430	782.10529	
2911	29.100	359.53622	1354.84680	839.22754	407.98627	1340.15869	824.00433	544.23773	1299.31262	783.11121	
2912	29.110	359.44907	1355.79944	839.49438	407.32706	1341.24622	824.55865	543.89221	1300.00061	783.37787	
2913	29.120	358.60916	1356.81262	840.54181	406.44217	1342.16833	825.50476	543.34460	1300.66394	784.21307	
2914	29.130	358.23447	1357.62903	840.82800	405.94458	1342.85559	826.27063	542.86560	1301.14661	785.10553	
2915	29.140	357.83948	1358.37793	841.34430	405.57513	1343.49243	826.57397	542.25830	1302.23682	785.74261	
2916	29.150	357.56885	1358.99512	841.55725	404.90762	1344.48267	826.89752	541.88867	1302.91711	785.97095	
2917	29.160	356.87759	1359.60071	841.92352	404.56836	1345.04138	826.82806	541.41724	1303.16211	786.19946	
2918	29.170	356.41809	1360.12927	842.02679	404.00381	1345.60852	827.19238	541.10632	1303.31494	786.51367	
2919	29.180	355.59946	1360.71960	842.41235	403.10464	1346.11304	827.47986	540.59418	1304.08203	786.90552	
2920	29.190	355.47943	1361.05054	842.05670	402.88797	1346.68604	827.51178	539.77148	1304.69800	787.15552	
2921	29.200	354.60931	1361.65918	842.16241	402.72675	1346.74365	827.35437	539.51801	1305.23877	787.19891	
2922	29.210	354.15271	1361.96887	841.83289	402.24158	1347.24792	827.29755	539.09149	1305.86646	787.07306	
2923	29.220	353.73843	1362.28857	841.41681	401.13196	1347.64807	827.20947	539.19019	1305.88867	787.31104	
2924	29.230	353.09653	1362.73230	841.00745	400.90283	1347.65051	826.99274	538.69934	1306.14319	787.02979	
2925	29.240	351.99002	1362.94812	840.44910	400.38992	1348.27954	826.14246	537.82465	1306.35046	786.87305	
2926	29.250	351.70224	1362.99756	840.07397	399.35333	1348.56726	825.98962	536.78149	1306.62427	787.61096	
2927	29.260	350.58212	1363.37451	839.68622	398.57205	1348.98804	825.61768	536.14441	1306.79248	787.17053	
2928	29.270	349.26242	1363.79663	839.39838	397.99750	1348.83826	825.26581	535.37109	1306.59924	787.20844	
